<svg width="20" height="20" viewBox="0 0 20 20" fill="none" xmlns="http://www.w3.org/2000/svg">
<path fill-rule="evenodd" clip-rule="evenodd" d="M3.33301 9.99984C3.33301 9.5396 3.7061 9.1665 4.16634 9.1665H15.833C16.2932 9.1665 16.6663 9.5396 16.6663 9.99984C16.6663 10.4601 16.2932 10.8332 15.833 10.8332H4.16634C3.7061 10.8332 3.33301 10.4601 3.33301 9.99984Z" fill="#34423D"/>
<path fill-rule="evenodd" clip-rule="evenodd" d="M10.5889 3.57757C10.9144 3.90301 10.9144 4.43065 10.5889 4.75609L5.34485 10.0002L10.5889 15.2442C10.9144 15.5697 10.9144 16.0973 10.5889 16.4228C10.2635 16.7482 9.73586 16.7482 9.41042 16.4228L3.57709 10.5894C3.25165 10.264 3.25165 9.73634 3.57709 9.41091L9.41042 3.57757C9.73586 3.25214 10.2635 3.25214 10.5889 3.57757Z" fill="#34423D"/>
</svg>
