<svg width="16" height="22" viewBox="0 0 16 22" fill="none" xmlns="http://www.w3.org/2000/svg">
<path fill-rule="evenodd" clip-rule="evenodd" d="M6 2C5.73478 2 5.48043 2.10536 5.29289 2.29289C5.10536 2.48043 5 2.73478 5 3V4H11V3C11 2.73478 10.8946 2.48043 10.7071 2.29289C10.5196 2.10536 10.2652 2 10 2H6ZM13 4V3C13 2.20435 12.6839 1.44129 12.1213 0.87868C11.5587 0.31607 10.7956 0 10 0H6C5.20435 0 4.44129 0.31607 3.87868 0.87868C3.31607 1.44129 3 2.20435 3 3V4H1C0.447715 4 0 4.44772 0 5V19C0 19.7957 0.31607 20.5587 0.87868 21.1213C1.44129 21.6839 2.20435 22 3 22H13C13.7957 22 14.5587 21.6839 15.1213 21.1213C15.6839 20.5587 16 19.7957 16 19V5C16 4.44772 15.5523 4 15 4H13ZM2 6V19C2 19.2652 2.10536 19.5196 2.29289 19.7071C2.48043 19.8946 2.73478 20 3 20H13C13.2652 20 13.5196 19.8946 13.7071 19.7071C13.8946 19.5196 14 19.2652 14 19V6H2Z" fill="#A3B8B0"/>
</svg>
